<svg id="Calque_1" data-name="Calque 1" xmlns="http://www.w3.org/2000/svg" xmlns:xlink="http://www.w3.org/1999/xlink" viewBox="0 0 170.21 86.86"><defs><style>.cls-1{fill:url(#Dégradé_sans_nom_4);}.cls-2{fill:url(#Dégradé_sans_nom_4-2);}.cls-3{fill:url(#Dégradé_sans_nom_4-3);}.cls-4{fill:url(#Dégradé_sans_nom_4-4);}.cls-5{fill:url(#Dégradé_sans_nom_4-5);}.cls-6{fill:url(#Dégradé_sans_nom_4-6);}</style><linearGradient id="Dégradé_sans_nom_4" x1="127.54" y1="55.73" x2="139.8" y2="55.73" gradientUnits="userSpaceOnUse"><stop offset="0" stop-color="#3b82f6"/><stop offset="1" stop-color="#60a5fa"/></linearGradient><linearGradient id="Dégradé_sans_nom_4-2" x1="148.79" y1="55.73" x2="161.05" y2="55.73" xlink:href="#Dégradé_sans_nom_4"/><linearGradient id="Dégradé_sans_nom_4-3" x1="127.54" y1="76.83" x2="139.8" y2="76.83" xlink:href="#Dégradé_sans_nom_4"/><linearGradient id="Dégradé_sans_nom_4-4" x1="148.79" y1="76.83" x2="161.05" y2="76.83" xlink:href="#Dégradé_sans_nom_4"/><linearGradient id="Dégradé_sans_nom_4-5" x1="81.86" y1="43.29" x2="166.94" y2="43.29" xlink:href="#Dégradé_sans_nom_4"/><linearGradient id="Dégradé_sans_nom_4-6" x1="3.89" y1="43.18" x2="101.37" y2="43.18" xlink:href="#Dégradé_sans_nom_4"/></defs><rect class="cls-1" x="127.54" y="49.6" width="12.26" height="12.26"/><rect class="cls-2" x="148.79" y="49.6" width="12.26" height="12.26"/><rect class="cls-3" x="127.54" y="70.7" width="12.26" height="12.26"/><rect class="cls-4" x="148.79" y="70.7" width="12.26" height="12.26"/><path class="cls-5" d="M166.13,30,147.72,5.29a4.17,4.17,0,0,0-3.3-1.67,4.54,4.54,0,0,0-3.31,1.63L81.86,83H92.27l52.08-68.32L159.49,35A4.14,4.14,0,0,0,166.13,30Z"/><path class="cls-6" d="M100,45.45a4.13,4.13,0,0,0,.33-5.84L69.14,4.77a3.94,3.94,0,0,0-3.25-1.38A4.12,4.12,0,0,0,62.76,5L3.89,83H14.26L66.33,14l27.82,31.1A4.15,4.15,0,0,0,100,45.45Z"/></svg>